<svg xmlns="http://www.w3.org/2000/svg" viewBox="0 0 256 256" width="256" height="256" fill="none">
  <defs>
    <linearGradient id="g" x1="0" y1="0" x2="0" y2="1">
      <stop offset="0%" stop-color="#3fdb63"/>
      <stop offset="100%" stop-color="#18a047"/>
    </linearGradient>
  </defs>
  <g fill="url(#g)">
    <path d="M48 112c0-17.673 14.327-32 32-32h32c17.673 0 32-14.327 32-32V32c0-17.673 14.327-32 32-32h0c17.673 0 32 14.327 32 32v32c0 17.673-14.327 32-32 32h-24l-40 40-24-24V112H80c-17.673 0-32-14.327-32-32Z"/>
    <path d="M208 144c0 17.673-14.327 32-32 32h-32c-17.673 0-32 14.327-32 32v16c0 17.673-14.327 32-32 32h0c-17.673 0-32-14.327-32-32v-32c0-17.673 14.327-32 32-32h24l40-40 24 24v32h8c17.673 0 32 14.327 32 32Z"/>
  </g>
</svg>
